# xmcd
#
# Track frame offsets: 
#        150
#        17117
#        33604
#        47256
#        67487
#        86709
#        107188
#        123641
#        142862
#        163385
#        173497
#        194489
#        209155
#        219750
#        234610
#        255277
#
# Disc length: 3623 seconds
#
# Revision: 0
# Processed by: cddbd v1.5.2PL0 Copyright (c) Steve Scherf et al.
# Submitted via: ExactAudioCopy v0.99pb5
#
DISCID=ec0e2510
DTITLE=Various Artist - SCM Sampler No.2
DYEAR=2007
DGENRE=Alternative
TTITLE0=The Bittersweets - Long Day
TTITLE1=Gretchen Peters - Tomorrow Morning
TTITLE2=Kevin Montgomery - Tryin' To Fly With One Wing
TTITLE3=Jack Sundrud - Hard Country
TTITLE4=Loomer - Only Lovers
TTITLE5=Idgy Vaughan - Good Enough
TTITLE6=Emily Barker - This Is How It's Meant To Be
TTITLE7=Angela Easterling - Earning Her Wings
TTITLE8=Gina Villalobos - Somewhere To Lay Down
TTITLE9=Will Kimbrough - Brand New Song
TTITLE10=Eric Taylor - Manhattan Mandolin Blues
TTITLE11=Paul Burch - Montreal
TTITLE12=Wayne Hancock - Shootin' Star From Texas
TTITLE13=Elizabeth Cook - Sometimes It Takes Balls To Be A Woman
TTITLE14=Sunny Sweeney - Slow Swingin' Western Tunes
TTITLE15=George Jones and Merle Haggard - Footlights
EXTD=
EXTT0=
EXTT1=
EXTT2=
EXTT3=
EXTT4=
EXTT5=
EXTT6=
EXTT7=
EXTT8=
EXTT9=
EXTT10=
EXTT11=
EXTT12=
EXTT13=
EXTT14=
EXTT15=
PLAYORDER=
